<svg width="255" height="254" viewBox="0 0 255 254" fill="none" xmlns="http://www.w3.org/2000/svg">
<path fill-rule="evenodd" clip-rule="evenodd" d="M127 254C197.14 254 254 197.14 254 127C254 56.8598 197.14 0 127 0C56.8598 0 0 56.8598 0 127C0 197.14 56.8598 254 127 254ZM127.001 176.161C154.152 176.161 176.162 154.15 176.162 126.999C176.162 99.8483 154.152 77.8381 127.001 77.8381C99.85 77.8381 77.8397 99.8483 77.8397 126.999C77.8397 154.15 99.85 176.161 127.001 176.161Z" fill="url(#paint0_angular)"/>
<path fill-rule="evenodd" clip-rule="evenodd" d="M127.925 254.001C197.571 254.001 254.031 197.702 254.031 128.254C254.031 127.889 254.03 127.524 254.026 127.16C253.151 127.392 252.402 127.881 251.818 128.669C251.818 128.669 218.802 174.432 179.335 182.752C139.868 191.073 103.964 173.045 97.1119 166.111L42.8218 221.05C65.252 241.515 95.1262 254.001 127.925 254.001Z" fill="url(#paint1_linear)"/>
<path d="M150.437 40.851C150.437 37.8511 163.037 38.3511 168.392 32.851C173.568 27.5351 173.893 15.3952 175.892 15.3952C177.892 15.3952 178.59 27.5486 183.892 32.851C189.195 38.1534 201.348 38.3511 201.348 40.851C201.348 43.3509 189.227 42.8031 183.892 47.851C178.186 53.25 177.892 66.3068 175.892 66.3068C173.893 66.3068 173.971 53.2731 168.392 47.851C162.995 42.6057 150.437 43.8509 150.437 40.851Z" fill="white"/>
<path d="M189.276 83.3208C189.276 81.4268 197.231 81.7425 200.612 78.2701C203.88 74.914 204.084 67.2495 205.347 67.2495C206.609 67.2495 207.05 74.9225 210.398 78.2701C213.745 81.6177 221.418 81.7425 221.418 83.3208C221.418 84.8991 213.766 84.5532 210.398 87.7402C206.795 91.1488 206.609 99.3921 205.347 99.3921C204.084 99.3921 204.134 91.1634 200.612 87.7402C197.204 84.4286 189.276 85.2148 189.276 83.3208Z" fill="white"/>
<path d="M127.276 62.3208C127.276 60.4268 135.231 60.7425 138.612 57.2701C141.88 53.914 142.084 46.2495 143.347 46.2495C144.609 46.2495 145.05 53.9225 148.398 57.2701C151.745 60.6177 159.418 60.7425 159.418 62.3208C159.418 63.8991 151.766 63.5532 148.398 66.7402C144.795 70.1488 144.609 78.3921 143.347 78.3921C142.084 78.3921 142.134 70.1634 138.612 66.7402C135.204 63.4286 127.276 64.2148 127.276 62.3208Z" fill="white"/>
<defs>
<radialGradient id="paint0_angular" cx="0" cy="0" r="1" gradientUnits="userSpaceOnUse" gradientTransform="translate(127 127) rotate(123.024) scale(48.8616)">
<stop stop-color="#0075FF"/>
<stop offset="1" stop-color="#93E5FF"/>
</radialGradient>
<linearGradient id="paint1_linear" x1="117.592" y1="225.778" x2="305.741" y2="178.741" gradientUnits="userSpaceOnUse">
<stop stop-color="#0075FF"/>
<stop offset="1" stop-color="#1544EC"/>
</linearGradient>
</defs>
</svg>
